:FULLY-SPECIFIED
:FORCE-ALL-JOINTS-BE-3DOF
:DEGREES
110
root 0.697705 17.4831 22.5191 -0.0541169 -2.3237 0.979567
lfemur -4.21786 6.42712 -19.2083
ltibia 76.9242 0 0
lfoot 12.0716 -0.581636 0
ltoes -10.4292 0 0
rfemur -17.2049 -0.880412 23.2892
rtibia 60.992 0 0
rfoot 1.57738 -6.4701 0
rtoes 14.5386 0 0
lowerback 17.7091 -1.34707 -0.667474
upperback 2.15557 -1.89045 -0.0337446
thorax -7.57882 -0.905221 0.794534
lowerneck -6.63562 1.55188 -0.691773
upperneck -8.48395 2.04909 -1.12671
head -1.46637 1.04974 -0.207721
lclavicle -1.99172e-14 2.64335e-14 0
lhumerus -38.4516 -18.1298 91.3217
lradius 106.039 0 0
lwrist 28.2987 0 0
lhand -37.14 8.45633 0
lfingers 7.12502 0 0
lthumb -10.2097 38.1872 0
rclavicle -1.99172e-14 2.64335e-14 0
rhumerus -41.8098 10.0107 -85.0862
rradius 87.4707 0 0
rwrist -1.76501 0 0
rhand -44.5436 38.4351 0
rfingers 7.12502 0 0
rthumb -17.3444 9.18897 0
111
root 0.702421 17.4845 23.0601 -0.0635002 -2.60359 0.890984
lfemur -3.82215 6.80962 -18.8879
ltibia 78.3246 0 0
lfoot 13.0939 -0.579792 0
ltoes -10.2194 0 0
rfemur -17.3628 -0.467957 23.585
rtibia 59.2971 0 0
rfoot 0.741834 -6.46651 0
rtoes 14.1241 0 0
lowerback 17.6996 -1.3672 -0.490733
upperback 2.12291 -1.8758 0.0675393
thorax -7.6116 -0.90134 0.799901
lowerneck -6.63215 1.64901 -0.637891
upperneck -8.4672 2.16394 -1.34464
head -1.46031 1.10792 -0.284398
lclavicle -2.07948e-14 2.58517e-14 0
lhumerus -38.9695 -18.2363 91.5435
lradius 106.007 0 0
lwrist 28.2622 0 0
lhand -37.1791 8.49034 0
lfingers 7.12502 0 0
lthumb -10.2474 38.2194 0
rclavicle -2.07948e-14 2.58517e-14 0
rhumerus -41.5767 10.1516 -85.0865
rradius 87.7758 0 0
rwrist -1.87465 0 0
rhand -44.5405 38.4465 0
rfingers 7.12502 0 0
rthumb -17.3414 9.20014 0
112
root 0.707137 17.4858 23.6011 -0.0728835 -2.88348 0.802402
lfemur -3.42644 7.19213 -18.5676
ltibia 79.725 0 0
lfoot 14.1162 -0.577949 0
ltoes -10.0096 0 0
rfemur -17.5206 -0.0555015 23.8809
rtibia 57.6022 0 0
rfoot -0.0937146 -6.46292 0
rtoes 13.7096 0 0
lowerback 17.6901 -1.38734 -0.313992
upperback 2.09024 -1.86116 0.168823
thorax -7.64438 -0.897459 0.805268
lowerneck -6.62868 1.74615 -0.58401
upperneck -8.45046 2.27879 -1.56257
head -1.45424 1.16609 -0.361075
lclavicle -2.16724e-14 2.52699e-14 0
lhumerus -39.4874 -18.3429 91.7652
lradius 105.975 0 0
lwrist 28.2257 0 0
lhand -37.2182 8.52435 0
lfingers 7.12502 0 0
lthumb -10.2851 38.2516 0
rclavicle -2.16724e-14 2.52699e-14 0
rhumerus -41.3436 10.2925 -85.0868
rradius 88.081 0 0
rwrist -1.98429 0 0
rhand -44.5374 38.458 0
rfingers 7.12502 0 0
rthumb -17.3384 9.21132 0
113
root 0.711853 17.4872 24.1422 -0.0822668 -3.16336 0.71382
lfemur -3.03074 7.57464 -18.2472
ltibia 81.1253 0 0
lfoot 15.1385 -0.576105 0
ltoes -9.79981 0 0
rfemur -17.6785 0.356954 24.1767
rtibia 55.9073 0 0
rfoot -0.929263 -6.45932 0
rtoes 13.2952 0 0
lowerback 17.6806 -1.40748 -0.137251
upperback 2.05758 -1.84651 0.270107
thorax -7.67717 -0.893578 0.810634
lowerneck -6.6252 1.84328 -0.530128
upperneck -8.43372 2.39363 -1.7805
head -1.44818 1.22427 -0.437752
lclavicle -2.25499e-14 2.46881e-14 0
lhumerus -40.0052 -18.4494 91.987
lradius 105.943 0 0
lwrist 28.1891 0 0
lhand -37.2572 8.55836 0
lfingers 7.12502 0 0
lthumb -10.3228 38.2838 0
rclavicle -2.25499e-14 2.46881e-14 0
rhumerus -41.1105 10.4333 -85.0871
rradius 88.3862 0 0
rwrist -2.09393 0 0
rhand -44.5342 38.4694 0
rfingers 7.12502 0 0
rthumb -17.3354 9.22249 0
114
root 0.716569 17.4885 24.6832 -0.0916501 -3.44325 0.625237
lfemur -2.63503 7.95714 -17.9268
ltibia 82.5257 0 0
lfoot 16.1608 -0.574262 0
ltoes -9.59001 0 0
rfemur -17.8364 0.769409 24.4725
rtibia 54.2124 0 0
rfoot -1.76481 -6.45573 0
rtoes 12.8807 0 0
lowerback 17.671 -1.42761 0.0394902
upperback 2.02492 -1.83186 0.371391
thorax -7.70995 -0.889697 0.816001
lowerneck -6.62173 1.94041 -0.476247
upperneck -8.41697 2.50848 -1.99843
head -1.44212 1.28244 -0.514429
lclavicle -2.34275e-14 2.41063e-14 0
lhumerus -40.5231 -18.5559 92.2088
lradius 105.911 0 0
lwrist 28.1526 0 0
lhand -37.2963 8.59237 0
lfingers 7.12502 0 0
lthumb -10.3605 38.3161 0
rclavicle -2.34275e-14 2.41063e-14 0
rhumerus -40.8774 10.5742 -85.0875
rradius 88.6913 0 0
rwrist -2.20357 0 0
rhand -44.5311 38.4808 0
rfingers 7.12502 0 0
rthumb -17.3324 9.23366 0
115
root 0.721285 17.4899 25.2242 -0.101033 -3.72313 0.536655
lfemur -2.23933 8.33965 -17.6064
ltibia 83.9261 0 0
lfoot 17.1831 -0.572418 0
ltoes -9.38022 0 0
rfemur -17.9943 1.18186 24.7683
rtibia 52.5175 0 0
rfoot -2.60036 -6.45214 0
rtoes 12.4663 0 0
lowerback 17.6615 -1.44775 0.216231
upperback 1.99226 -1.81722 0.472675
thorax -7.74274 -0.885816 0.821368
lowerneck -6.61826 2.03754 -0.422366
upperneck -8.40023 2.62333 -2.21636
head -1.43606 1.34061 -0.591106
lclavicle -2.4305e-14 2.35245e-14 0
lhumerus -41.0409 -18.6625 92.4305
lradius 105.879 0 0
lwrist 28.1161 0 0
lhand -37.3354 8.62638 0
lfingers 7.12502 0 0
lthumb -10.3982 38.3483 0
rclavicle -2.4305e-14 2.35245e-14 0
rhumerus -40.6443 10.7151 -85.0878
rradius 88.9965 0 0
rwrist -2.31321 0 0
rhand -44.528 38.4923 0
rfingers 7.12502 0 0
rthumb -17.3294 9.24483 0
116
root 0.726001 17.4912 25.7652 -0.110417 -4.00302 0.448073
lfemur -1.84362 8.72215 -17.286
ltibia 85.3264 0 0
lfoot 18.2054 -0.570574 0
ltoes -9.17042 0 0
rfemur -18.1522 1.59432 25.0641
rtibia 50.8226 0 0
rfoot -3.43591 -6.44855 0
rtoes 12.0518 0 0
lowerback 17.652 -1.46789 0.392972
upperback 1.9596 -1.80257 0.573959
thorax -7.77552 -0.881935 0.826735
lowerneck -6.61479 2.13467 -0.368484
upperneck -8.38348 2.73817 -2.43429
head -1.43 1.39879 -0.667783
lclavicle -2.51826e-14 2.29427e-14 0
lhumerus -41.5588 -18.769 92.6523
lradius 105.846 0 0
lwrist 28.0795 0 0
lhand -37.3745 8.66039 0
lfingers 7.12502 0 0
lthumb -10.4359 38.3805 0
rclavicle -2.51826e-14 2.29427e-14 0
rhumerus -40.4112 10.856 -85.0881
rradius 89.3016 0 0
rwrist -2.42285 0 0
rhand -44.5249 38.5037 0
rfingers 7.12502 0 0
rthumb -17.3264 9.256 0
117
root 0.730717 17.4926 26.3062 -0.1198 -4.2829 0.35949
lfemur -1.44792 9.10466 -16.9657
ltibia 86.7268 0 0
lfoot 19.2277 -0.568731 0
ltoes -8.96062 0 0
rfemur -18.3101 2.00677 25.36
rtibia 49.1277 0 0
rfoot -4.27146 -6.44495 0
rtoes 11.6373 0 0
lowerback 17.6425 -1.48802 0.569713
upperback 1.92694 -1.78792 0.675243
thorax -7.80831 -0.878054 0.832102
lowerneck -6.61131 2.23181 -0.314603
upperneck -8.36674 2.85302 -2.65222
head -1.42394 1.45696 -0.74446
lclavicle -2.60602e-14 2.23609e-14 0
lhumerus -42.0766 -18.8755 92.8741
lradius 105.814 0 0
lwrist 28.043 0 0
lhand -37.4135 8.6944 0
lfingers 7.12502 0 0
lthumb -10.4736 38.4127 0
rclavicle -2.60602e-14 2.23609e-14 0
rhumerus -40.1781 10.9969 -85.0884
rradius 89.6068 0 0
rwrist -2.53249 0 0
rhand -44.5218 38.5151 0
rfingers 7.12502 0 0
rthumb -17.3234 9.26717 0
118
root 0.735433 17.4939 26.8473 -0.129183 -4.56279 0.270908
lfemur -1.05221 9.48716 -16.6453
ltibia 88.1271 0 0
lfoot 20.25 -0.566887 0
ltoes -8.75083 0 0
rfemur -18.468 2.41923 25.6558
rtibia 47.4328 0 0
rfoot -5.10701 -6.44136 0
rtoes 11.2229 0 0
lowerback 17.633 -1.50816 0.746454
upperback 1.89428 -1.77328 0.776527
thorax -7.84109 -0.874172 0.837468
lowerneck -6.60784 2.32894 -0.260722
upperneck -8.34999 2.96787 -2.87015
head -1.41788 1.51514 -0.821138
lclavicle -2.69377e-14 2.1779e-14 0
lhumerus -42.5945 -18.9821 93.0958
lradius 105.782 0 0
lwrist 28.0065 0 0
lhand -37.4526 8.72841 0
lfingers 7.12502 0 0
lthumb -10.5112 38.4449 0
rclavicle -2.69377e-14 2.1779e-14 0
rhumerus -39.945 11.1377 -85.0887
rradius 89.9119 0 0
rwrist -2.64213 0 0
rhand -44.5186 38.5266 0
rfingers 7.12502 0 0
rthumb -17.3203 9.27834 0
119
root 0.740149 17.4953 27.3883 -0.138567 -4.84267 0.182326
lfemur -0.656507 9.86967 -16.3249
ltibia 89.5275 0 0
lfoot 21.2723 -0.565044 0
ltoes -8.54103 0 0
rfemur -18.6259 2.83168 25.9516
rtibia 45.738 0 0
rfoot -5.94256 -6.43777 0
rtoes 10.8084 0 0
lowerback 17.6235 -1.5283 0.923195
upperback 1.86162 -1.75863 0.87781
thorax -7.87388 -0.870291 0.842835
lowerneck -6.60437 2.42607 -0.20684
upperneck -8.33325 3.08271 -3.08808
head -1.41182 1.57331 -0.897815
lclavicle -2.78153e-14 2.11972e-14 0
lhumerus -43.1123 -19.0886 93.3176
lradius 105.75 0 0
lwrist 27.9699 0 0
lhand -37.4917 8.76242 0
lfingers 7.12502 0 0
lthumb -10.5489 38.4771 0
rclavicle -2.78153e-14 2.11972e-14 0
rhumerus -39.7118 11.2786 -85.089
rradius 90.2171 0 0
rwrist -2.75176 0 0
rhand -44.5155 38.538 0
rfingers 7.12502 0 0
rthumb -17.3173 9.28951 0
120
root 0.744865 17.4966 27.9293 -0.14795 -5.12256 0.0937434
lfemur -0.260801 10.2522 -16.0045
ltibia 90.9279 0 0
lfoot 22.2946 -0.5632 0
ltoes -8.33124 0 0
rfemur -18.7837 3.24414 26.2474
rtibia 44.0431 0 0
rfoot -6.7781 -6.43417 0
rtoes 10.394 0 0
lowerback 17.614 -1.54843 1.09994
upperback 1.82895 -1.74399 0.979094
thorax -7.90666 -0.86641 0.848202
lowerneck -6.60089 2.5232 -0.152959
upperneck -8.31651 3.19756 -3.30601
head -1.40575 1.63148 -0.974492
lclavicle -2.86929e-14 2.06154e-14 0
lhumerus -43.6302 -19.1952 93.5393
lradius 105.718 0 0
lwrist 27.9334 0 0
lhand -37.5307 8.79643 0
lfingers 7.12502 0 0
lthumb -10.5866 38.5093 0
rclavicle -2.86929e-14 2.06154e-14 0
rhumerus -39.4787 11.4195 -85.0893
rradius 90.5223 0 0
rwrist -2.8614 0 0
rhand -44.5124 38.5495 0
rfingers 7.12502 0 0
rthumb -17.3143 9.30069 0
121
root 0.749581 17.498 28.4703 -0.157333 -5.40244 0.00516102
lfemur 0.134904 10.6347 -15.6841
ltibia 92.3282 0 0
lfoot 23.3169 -0.561357 0
ltoes -8.12144 0 0
rfemur -18.9416 3.65659 26.5432
rtibia 42.3482 0 0
rfoot -7.61365 -6.43058 0
rtoes 9.97949 0 0
lowerback 17.6044 -1.56857 1.27668
upperback 1.79629 -1.72934 1.08038
thorax -7.93945 -0.862529 0.853569
lowerneck -6.59742 2.62033 -0.0990774
upperneck -8.29976 3.31241 -3.52394
head -1.39969 1.68966 -1.05117
lclavicle -2.95704e-14 2.00336e-14 0
lhumerus -44.148 -19.3017 93.7611
lradius 105.686 0 0
lwrist 27.8969 0 0
lhand -37.5698 8.83044 0
lfingers 7.12502 0 0
lthumb -10.6243 38.5415 0
rclavicle -2.95704e-14 2.00336e-14 0
rhumerus -39.2456 11.5604 -85.0896
rradius 90.8274 0 0
rwrist -2.97104 0 0
rhand -44.5093 38.5609 0
rfingers 7.12502 0 0
rthumb -17.3113 9.31186 0
122
root 0.754297 17.4993 29.0114 -0.166716 -5.68233 -0.0834213
lfemur 0.530609 11.0172 -15.3638
ltibia 93.7286 0 0
lfoot 24.3392 -0.559513 0
ltoes -7.91164 0 0
rfemur -19.0995 4.06905 26.8391
rtibia 40.6533 0 0
rfoot -8.4492 -6.42699 0
rtoes 9.56503 0 0
lowerback 17.5949 -1.58871 1.45342
upperback 1.76363 -1.71469 1.18166
thorax -7.97223 -0.858648 0.858935
lowerneck -6.59395 2.71747 -0.045196
upperneck -8.28302 3.42726 -3.74187
head -1.39363 1.74783 -1.12785
lclavicle -3.0448e-14 1.94518e-14 0
lhumerus -44.6659 -19.4082 93.9829
lradius 105.653 0 0
lwrist 27.8604 0 0
lhand -37.6089 8.86445 0
lfingers 7.12502 0 0
lthumb -10.662 38.5737 0
rclavicle -3.0448e-14 1.94518e-14 0
rhumerus -39.0125 11.7012 -85.0899
rradius 91.1326 0 0
rwrist -3.08068 0 0
rhand -44.5061 38.5723 0
rfingers 7.12502 0 0
rthumb -17.3083 9.32303 0
123
root 0.759013 17.5007 29.5524 -0.1761 -5.96221 -0.172004
lfemur 0.926315 11.3997 -15.0434
ltibia 95.1289 0 0
lfoot 25.3615 -0.55767 0
ltoes -7.70185 0 0
rfemur -19.2574 4.4815 27.1349
rtibia 38.9584 0 0
rfoot -9.28475 -6.42339 0
rtoes 9.15057 0 0
lowerback 17.5854 -1.60884 1.63016
upperback 1.73097 -1.70005 1.28295
thorax -8.00502 -0.854767 0.864302
lowerneck -6.59047 2.8146 0.00868541
upperneck -8.26627 3.5421 -3.9598
head -1.38757 1.80601 -1.20452
lclavicle -3.13255e-14 1.887e-14 0
lhumerus -45.1837 -19.5148 94.2046
lradius 105.621 0 0
lwrist 27.8238 0 0
lhand -37.6479 8.89846 0
lfingers 7.12502 0 0
lthumb -10.6997 38.6059 0
rclavicle -3.13255e-14 1.887e-14 0
rhumerus -38.7794 11.8421 -85.0902
rradius 91.4377 0 0
rwrist -3.19032 0 0
rhand -44.503 38.5838 0
rfingers 7.12502 0 0
rthumb -17.3053 9.3342 0
